<svg xmlns="http://www.w3.org/2000/svg" viewBox="0 0 1000 1000" role="img" aria-label="MDI Buceo"><path fill="#275E94" fill-rule="evenodd" d="M264.3 917.6C262.9 915.9 260.8 912.0 259.6 908.8C258.4 905.6 255.7 898.4 253.5 892.8C251.4 887.2 249.6 880.0 249.6 876.9C249.6 870.4 242.3 862.3 234.8 860.5C225.2 858.3 186.2 832.1 170.9 817.6C143.3 791.4 118.1 742.7 127.4 733.4C129.1 731.8 128.9 730.5 126.8 728.0C122.3 722.6 108.5 698.6 108.5 696.2C108.5 694.9 106.8 690.6 104.8 686.6C101.5 680.1 101.1 675.7 101.1 645.4C101.2 605.7 100.4 607.8 134.0 558.6C144.5 543.3 153.1 530.0 153.1 528.9C153.1 527.8 156.3 520.0 160.3 511.6C177.6 474.8 177.6 475.6 162.4 483.3C152.9 488.1 135.8 489.7 133.6 486.0C132.9 485.0 128.9 484.2 124.6 484.2C120.2 484.2 115.7 483.2 114.4 482.0C111.7 479.3 111.3 427.1 113.9 418.4C114.8 415.3 117.2 407.6 119.2 401.3C121.5 393.9 122.2 388.8 121.1 386.9C119.0 383.0 120.3 310.8 122.8 301.3C123.8 297.2 127.7 287.6 131.3 279.9C135.0 272.3 138.4 264.5 139.0 262.7C139.7 260.3 141.9 259.5 147.5 259.5C154.4 259.5 155.2 258.9 157.9 252.5C174.9 212.4 195.8 176.9 210.5 163.3C217.9 156.5 243.6 140.6 247.2 140.6C248.5 140.6 259.8 135.7 272.4 129.7C326.9 103.3 347.3 95.0 363.8 92.0C368.9 91.1 377.3 89.5 382.4 88.5C387.5 87.4 398.2 85.8 406.1 84.8C414.0 83.9 427.4 82.2 435.8 81.1C472.0 76.3 524.8 80.2 585.3 92.3C590.7 93.3 599.0 94.9 603.9 95.8C608.7 96.7 617.3 98.9 622.9 100.6C628.5 102.4 636.4 104.6 640.5 105.7C709.1 122.8 759.7 155.0 784.9 197.3C795.9 215.8 806.0 231.6 821.8 255.1C839.2 281.0 845.0 293.7 851.8 319.8C856.1 336.6 860.3 468.0 856.6 472.4C855.1 474.2 851.5 474.9 845.0 474.5C835.5 474.0 835.5 474.0 835.4 460.8C835.3 448.9 834.7 446.8 829.3 439.4C826.0 434.9 822.9 429.2 822.4 426.6C821.8 424.1 820.6 419.1 819.5 415.5C816.2 403.9 819.5 345.7 824.3 330.8C826.4 324.5 798.7 272.4 782.3 251.7C777.7 245.8 775.5 244.6 769.9 244.6C763.3 244.6 754.7 232.3 754.7 223.1C754.7 222.0 751.5 216.1 747.6 210.1C739.6 197.8 727.2 183.9 729.5 189.9C738.1 211.8 742.4 249.0 738.0 264.1C731.5 287.1 724.7 304.9 715.9 322.2C693.5 366.3 636.4 404.5 634.4 376.8C634.1 372.4 634.8 367.6 636.0 366.1C639.1 362.4 636.5 362.8 630.6 367.0C609.0 382.2 567.9 396.4 563.7 390.0C562.9 388.7 559.2 388.7 552.3 390.0C539.0 392.5 473.4 392.3 456.7 389.8C440.4 387.3 426.3 384.6 421.2 383.0C418.2 382.0 417.0 382.7 416.2 385.8C415.0 390.3 402.3 390.4 389.0 386.1C384.1 384.5 383.2 384.5 384.9 386.2C386.1 387.4 387.1 393.6 387.1 400.2C387.1 412.0 387.1 412.0 409.8 410.9C483.6 407.3 592.6 412.8 644.7 422.9C684.2 430.5 687.8 431.5 719.5 443.5C732.1 448.3 738.0 454.0 738.0 461.3C738.0 467.9 738.0 467.9 746.8 466.6C798.4 459.6 825.9 467.0 834.6 490.4C847.7 525.6 865.2 563.3 879.1 586.3C899.4 619.7 899.6 620.2 899.6 646.8C899.6 673.2 896.5 685.6 883.1 712.2C876.0 726.3 854.6 757.1 851.8 757.2C851.0 757.3 842.9 764.5 833.7 773.3C812.2 793.7 796.2 805.0 769.3 818.5C755.1 825.7 746.3 831.3 743.7 835.0C739.8 840.6 739.8 840.6 707.8 839.6C653.9 838.0 636.9 827.7 613.3 782.2C609.1 774.1 602.6 762.8 598.8 757.2C595.1 751.6 588.4 740.7 583.9 733.0C565.0 700.9 531.1 661.4 517.6 655.7C497.2 647.1 468.3 662.0 442.2 694.5C438.3 699.3 434.1 704.3 432.9 705.6C431.6 706.9 425.2 715.1 418.7 723.7C412.1 732.4 406.2 739.9 405.6 740.5C405.0 741.0 396.6 751.8 387.0 764.6C377.4 777.4 368.2 789.3 366.5 791.1C364.8 793.0 359.9 799.7 355.6 806.0C347.3 818.3 333.2 829.5 322.1 832.9C318.5 834.0 312.6 835.7 308.9 836.9C305.3 838.0 296.8 838.9 290.0 838.9C275.5 838.9 275.5 838.8 288.4 864.3C300.6 888.8 304.8 905.5 300.2 912.4C295.2 920.0 269.4 923.7 264.3 917.6ZM704.6 784.5C710.1 782.6 742.6 761.0 745.5 757.3C746.0 756.7 750.1 753.3 754.7 749.7C759.3 746.2 764.3 742.0 765.9 740.5C767.4 738.9 772.4 734.7 777.0 731.1C788.4 722.3 828.5 682.1 837.0 671.0C849.5 654.6 844.7 631.6 821.6 597.5C817.8 591.8 813.3 584.6 811.7 581.4C807.8 573.7 777.0 532.6 771.6 527.9C760.7 518.3 715.6 519.5 669.3 530.7C664.7 531.8 656.8 533.6 651.7 534.8C639.1 537.5 450.4 537.4 425.1 534.5C379.2 529.4 354.4 526.1 341.6 523.3C336.5 522.2 328.9 520.8 324.8 520.2C320.8 519.6 313.7 517.8 309.1 516.2C293.9 511.1 258.9 505.9 250.6 507.6C232.4 511.4 208.8 529.8 208.8 540.3C208.8 547.1 199.6 561.6 190.1 569.6C178.4 579.7 149.4 626.9 149.4 636.0C149.4 647.6 162.5 674.5 174.4 687.2C177.5 690.5 182.9 696.9 186.5 701.5C194.8 712.1 202.0 719.3 212.5 727.4C217.1 731.0 225.4 738.6 231.1 744.2C276.6 790.0 295.8 789.9 324.8 744.0C342.6 715.8 414.4 615.6 420.4 610.5C421.0 610.0 424.4 605.8 427.9 601.2C473.9 541.4 528.5 540.4 571.5 598.5C581.7 612.2 613.8 664.5 636.4 704.2C640.5 711.4 647.3 723.1 651.6 730.2C655.8 737.4 661.9 748.7 665.0 755.4C675.8 778.7 690.5 789.5 704.6 784.5ZM616.4 508.7C642.4 504.9 638.1 501.0 607.9 500.9C586.4 500.9 586.4 500.9 587.2 506.6C588.2 513.0 587.5 513.0 616.4 508.7ZM342.1 452.4C342.7 445.6 342.7 445.6 330.8 449.6C308.7 457.1 307.2 460.0 325.8 459.5C341.6 459.1 341.6 459.1 342.1 452.4ZM305.7 426.6C313.6 426.5 315.4 423.7 309.2 421.1C303.3 418.7 279.7 396.5 272.5 386.7C268.4 381.1 268.4 381.1 270.7 388.1C272.0 391.9 276.1 398.6 279.9 402.9C286.1 410.2 286.7 411.8 286.7 422.5C286.8 434.1 286.8 434.1 294.1 430.4C298.2 428.3 303.4 426.6 305.7 426.6Z"/></svg>